<svg width="23" height="23" viewBox="0 0 23 23" fill="none" xmlns="http://www.w3.org/2000/svg">
<path d="M4.72527 12.285H15.933L12.5026 16.4052C12.4232 16.5007 12.3634 16.611 12.3266 16.7297C12.2898 16.8483 12.2767 16.9731 12.2881 17.0968C12.3111 17.3467 12.4325 17.5772 12.6255 17.7376C12.8185 17.898 13.0673 17.9752 13.3171 17.9522C13.567 17.9291 13.7975 17.8078 13.9579 17.6148L18.6829 11.9448C18.7147 11.8997 18.7431 11.8523 18.768 11.803C18.768 11.7558 18.8152 11.7274 18.8341 11.6802C18.877 11.5718 18.8994 11.4565 18.9003 11.34C18.8994 11.2235 18.877 11.1081 18.8341 10.9998C18.8341 10.9525 18.7869 10.9242 18.768 10.8769C18.7431 10.8277 18.7147 10.7803 18.6829 10.7352L13.9579 5.06518C13.8691 4.9585 13.7578 4.87272 13.632 4.81392C13.5063 4.75512 13.3691 4.72475 13.2303 4.72498C13.0095 4.72455 12.7955 4.80145 12.6255 4.94233C12.5298 5.02166 12.4507 5.11909 12.3927 5.22904C12.3347 5.33899 12.299 5.45929 12.2876 5.58306C12.2762 5.70684 12.2893 5.83165 12.3262 5.95034C12.3631 6.06904 12.4231 6.17929 12.5026 6.27478L15.933 10.395H4.72527C4.47464 10.395 4.23428 10.4945 4.05706 10.6718C3.87984 10.849 3.78027 11.0893 3.78027 11.34C3.78027 11.5906 3.87984 11.831 4.05706 12.0082C4.23428 12.1854 4.47464 12.285 4.72527 12.285Z" fill="white"/>
</svg>
