<svg width="44" height="48" viewBox="0 0 44 48" fill="none" xmlns="http://www.w3.org/2000/svg">
<path d="M12.6383 3.77596C13.4351 2.98625 13.4408 1.70015 12.6511 0.903364C11.8614 0.10658 10.5753 0.100842 9.7785 0.890547L5.8754 4.75897C4.42325 6.19814 3.21213 7.39844 2.3486 8.4737C1.44286 9.60151 0.753933 10.7868 0.56987 12.2309C0.345272 13.9929 1.80658 15.1978 3.22268 15.1978H40.4587C41.5805 15.1978 42.4899 14.2884 42.4899 13.1666C42.4899 12.0448 41.5805 11.1353 40.4587 11.1353H5.42282C5.45283 11.0968 5.48391 11.0576 5.51609 11.0175C6.21782 10.1437 7.26149 9.10498 8.81851 7.56179L12.6383 3.77596Z" fill="#03D5C0"/>
<path d="M2.54199 32.802C1.42016 32.802 0.510742 33.7114 0.510742 34.8332C0.510742 35.9551 1.42016 36.8645 2.54199 36.8645H38.1202C38.0901 36.903 38.0591 36.9423 38.0269 36.9823C37.3252 37.8561 36.2815 38.8949 34.7245 40.438L30.9047 44.2239C30.1079 45.0136 30.1022 46.2997 30.8919 47.0965C31.6816 47.8933 32.9677 47.899 33.7645 47.1093L37.6675 43.2409C39.1197 41.8018 40.3309 40.6014 41.1944 39.5261C42.1001 38.3983 42.789 37.213 42.9731 35.769C42.9811 35.706 42.9883 35.643 42.9947 35.5799C43.1603 33.9472 41.8182 32.802 40.4587 32.802H2.54199Z" fill="#03D5C0"/>
</svg>
