<svg width="81" height="24" viewBox="0 0 81 24" fill="none" xmlns="http://www.w3.org/2000/svg">
<path d="M34.9044 13.094C34.9044 12.31 35.0584 11.6147 35.3664 11.008C35.6837 10.4013 36.113 9.93467 36.6544 9.608C37.1957 9.28133 37.7977 9.118 38.4604 9.118C38.9644 9.118 39.445 9.23 39.9024 9.454C40.3597 9.66867 40.7237 9.958 40.9944 10.322V6.64H42.9824V17H40.9944V15.852C40.7517 16.2347 40.411 16.5427 39.9724 16.776C39.5337 17.0093 39.025 17.126 38.4464 17.126C37.793 17.126 37.1957 16.958 36.6544 16.622C36.113 16.286 35.6837 15.8147 35.3664 15.208C35.0584 14.592 34.9044 13.8873 34.9044 13.094ZM41.0084 13.122C41.0084 12.646 40.915 12.24 40.7284 11.904C40.5417 11.5587 40.2897 11.2973 39.9724 11.12C39.655 10.9333 39.3144 10.84 38.9504 10.84C38.5864 10.84 38.2504 10.9287 37.9424 11.106C37.6344 11.2833 37.3824 11.5447 37.1864 11.89C36.9997 12.226 36.9064 12.6273 36.9064 13.094C36.9064 13.5607 36.9997 13.9713 37.1864 14.326C37.3824 14.6713 37.6344 14.9373 37.9424 15.124C38.2597 15.3107 38.5957 15.404 38.9504 15.404C39.3144 15.404 39.655 15.3153 39.9724 15.138C40.2897 14.9513 40.5417 14.69 40.7284 14.354C40.915 14.0087 41.0084 13.598 41.0084 13.122ZM50.8887 15.138H46.9967L46.3527 17H44.2947L47.8087 7.214H50.0907L53.6047 17H51.5327L50.8887 15.138ZM50.3567 13.57L48.9427 9.482L47.5287 13.57H50.3567ZM56.8781 10.364C57.1301 10.0093 57.4755 9.71533 57.9141 9.482C58.3621 9.23933 58.8708 9.118 59.4401 9.118C60.1028 9.118 60.7001 9.28133 61.2321 9.608C61.7735 9.93467 62.1981 10.4013 62.5061 11.008C62.8235 11.6053 62.9821 12.3007 62.9821 13.094C62.9821 13.8873 62.8235 14.592 62.5061 15.208C62.1981 15.8147 61.7735 16.286 61.2321 16.622C60.7001 16.958 60.1028 17.126 59.4401 17.126C58.8708 17.126 58.3668 17.0093 57.9281 16.776C57.4988 16.5427 57.1488 16.2487 56.8781 15.894V20.696H54.9181V9.244H56.8781V10.364ZM60.9801 13.094C60.9801 12.6273 60.8821 12.226 60.6861 11.89C60.4995 11.5447 60.2475 11.2833 59.9301 11.106C59.6221 10.9287 59.2861 10.84 58.9221 10.84C58.5675 10.84 58.2315 10.9333 57.9141 11.12C57.6061 11.2973 57.3541 11.5587 57.1581 11.904C56.9715 12.2493 56.8781 12.6553 56.8781 13.122C56.8781 13.5887 56.9715 13.9947 57.1581 14.34C57.3541 14.6853 57.6061 14.9513 57.9141 15.138C58.2315 15.3153 58.5675 15.404 58.9221 15.404C59.2861 15.404 59.6221 15.3107 59.9301 15.124C60.2475 14.9373 60.4995 14.6713 60.6861 14.326C60.8821 13.9807 60.9801 13.57 60.9801 13.094ZM66.3664 10.364C66.6184 10.0093 66.9638 9.71533 67.4024 9.482C67.8504 9.23933 68.3591 9.118 68.9284 9.118C69.5911 9.118 70.1884 9.28133 70.7204 9.608C71.2618 9.93467 71.6864 10.4013 71.9944 11.008C72.3118 11.6053 72.4704 12.3007 72.4704 13.094C72.4704 13.8873 72.3118 14.592 71.9944 15.208C71.6864 15.8147 71.2618 16.286 70.7204 16.622C70.1884 16.958 69.5911 17.126 68.9284 17.126C68.3591 17.126 67.8551 17.0093 67.4164 16.776C66.9871 16.5427 66.6371 16.2487 66.3664 15.894V20.696H64.4064V9.244H66.3664V10.364ZM70.4684 13.094C70.4684 12.6273 70.3704 12.226 70.1744 11.89C69.9878 11.5447 69.7358 11.2833 69.4184 11.106C69.1104 10.9287 68.7744 10.84 68.4104 10.84C68.0558 10.84 67.7198 10.9333 67.4024 11.12C67.0944 11.2973 66.8424 11.5587 66.6464 11.904C66.4598 12.2493 66.3664 12.6553 66.3664 13.122C66.3664 13.5887 66.4598 13.9947 66.6464 14.34C66.8424 14.6853 67.0944 14.9513 67.4024 15.138C67.7198 15.3153 68.0558 15.404 68.4104 15.404C68.7744 15.404 69.1104 15.3107 69.4184 15.124C69.7358 14.9373 69.9878 14.6713 70.1744 14.326C70.3704 13.9807 70.4684 13.57 70.4684 13.094ZM76.8627 17.126C76.228 17.126 75.6587 17.014 75.1547 16.79C74.6507 16.5567 74.2494 16.244 73.9507 15.852C73.6614 15.46 73.5027 15.026 73.4747 14.55H75.4487C75.486 14.8487 75.6307 15.096 75.8827 15.292C76.144 15.488 76.466 15.586 76.8487 15.586C77.222 15.586 77.5114 15.5113 77.7167 15.362C77.9314 15.2127 78.0387 15.0213 78.0387 14.788C78.0387 14.536 77.908 14.3493 77.6467 14.228C77.3947 14.0973 76.9887 13.9573 76.4287 13.808C75.85 13.668 75.374 13.5233 75.0007 13.374C74.6367 13.2247 74.3194 12.996 74.0487 12.688C73.7874 12.38 73.6567 11.9647 73.6567 11.442C73.6567 11.0127 73.778 10.6207 74.0207 10.266C74.2727 9.91133 74.6274 9.63133 75.0847 9.426C75.5514 9.22067 76.0974 9.118 76.7227 9.118C77.6467 9.118 78.384 9.35133 78.9347 9.818C79.4854 10.2753 79.7887 10.896 79.8447 11.68H77.9687C77.9407 11.372 77.81 11.1293 77.5767 10.952C77.3527 10.7653 77.0494 10.672 76.6667 10.672C76.312 10.672 76.0367 10.7373 75.8407 10.868C75.654 10.9987 75.5607 11.1807 75.5607 11.414C75.5607 11.6753 75.6914 11.876 75.9527 12.016C76.214 12.1467 76.62 12.282 77.1707 12.422C77.7307 12.562 78.1927 12.7067 78.5567 12.856C78.9207 13.0053 79.2334 13.2387 79.4947 13.556C79.7654 13.864 79.9054 14.2747 79.9147 14.788C79.9147 15.236 79.7887 15.6373 79.5367 15.992C79.294 16.3467 78.9394 16.6267 78.4727 16.832C78.0154 17.028 77.4787 17.126 76.8627 17.126Z" fill="#03D5C0"/>
<path d="M6 12C6 13.1046 5.10457 14 4 14C2.89543 14 2 13.1046 2 12C2 10.8954 2.89543 10 4 10C5.10457 10 6 10.8954 6 12Z" fill="#03D5C0"/>
<path d="M14 12C14 13.1046 13.1046 14 12 14C10.8954 14 10 13.1046 10 12C10 10.8954 10.8954 10 12 10C13.1046 10 14 10.8954 14 12Z" fill="#03D5C0"/>
<path d="M22 12C22 13.1046 21.1046 14 20 14C18.8954 14 18 13.1046 18 12C18 10.8954 18.8954 10 20 10C21.1046 10 22 10.8954 22 12Z" fill="#03D5C0"/>
<path d="M6 4C6 5.10457 5.10457 6 4 6C2.89543 6 2 5.10457 2 4C2 2.89543 2.89543 2 4 2C5.10457 2 6 2.89543 6 4Z" fill="#03D5C0"/>
<path d="M14 4C14 5.10457 13.1046 6 12 6C10.8954 6 10 5.10457 10 4C10 2.89543 10.8954 2 12 2C13.1046 2 14 2.89543 14 4Z" fill="#03D5C0"/>
<path d="M22 4C22 5.10457 21.1046 6 20 6C18.8954 6 18 5.10457 18 4C18 2.89543 18.8954 2 20 2C21.1046 2 22 2.89543 22 4Z" fill="#03D5C0"/>
<path d="M6 20C6 21.1046 5.10457 22 4 22C2.89543 22 2 21.1046 2 20C2 18.8954 2.89543 18 4 18C5.10457 18 6 18.8954 6 20Z" fill="#03D5C0"/>
<path d="M14 20C14 21.1046 13.1046 22 12 22C10.8954 22 10 21.1046 10 20C10 18.8954 10.8954 18 12 18C13.1046 18 14 18.8954 14 20Z" fill="#03D5C0"/>
<path d="M22 20C22 21.1046 21.1046 22 20 22C18.8954 22 18 21.1046 18 20C18 18.8954 18.8954 18 20 18C21.1046 18 22 18.8954 22 20Z" fill="#03D5C0"/>
</svg>
