<svg width="63" height="63" viewBox="0 0 63 63" fill="none" xmlns="http://www.w3.org/2000/svg">
<path d="M33.4664 62.967H29.5331C28.7563 62.8679 27.9961 62.7854 27.2193 62.6863C21.1045 61.8774 15.3697 59.2526 10.7588 55.1749C5.33809 50.4865 1.70225 44.0646 0.495804 36.999C0.280958 35.8434 0.165266 34.6548 0 33.4826V29.5536C0.0826331 28.9758 0.148739 28.3815 0.231372 27.8037C1.17339 19.1697 5.73474 11.3281 12.7916 6.25998C22.9059 -1.3835 36.656 -2.09337 47.4975 4.49356C57.0829 9.90838 62.9995 20.0777 62.9829 31.0724C63.1978 37.4117 61.3799 43.6519 57.7771 48.8686C53.0504 56.1159 45.5308 61.052 37.0031 62.5047C35.8462 62.7194 34.6563 62.8349 33.4829 63M40.044 44.9726C40.8207 46.2108 41.581 47.3664 42.2916 48.555C42.5064 48.9017 42.7213 48.8191 43.0188 48.7366C46.8364 47.5314 50.4227 45.7155 53.6619 43.3548C53.8933 43.1732 54.0586 42.909 54.1081 42.6284C54.3726 39.855 54.3395 37.065 53.9925 34.2916C53.2157 28.2824 51.0342 22.5374 47.5967 17.5353C47.4149 17.2712 47.167 17.0566 46.886 16.908C44.1591 15.6864 41.2835 14.7949 38.3417 14.2501C38.0938 14.1511 37.8129 14.2832 37.7303 14.5308C37.7303 14.5308 37.7303 14.5308 37.7303 14.5473C37.4824 15.0921 37.1849 15.6038 36.97 16.1486C36.9039 16.4623 36.5899 16.6439 36.2759 16.5778C36.2759 16.5778 36.2594 16.5778 36.2429 16.5778C34.9373 16.4128 33.6317 16.3137 32.3261 16.2807C30.3429 16.2807 28.3597 16.4128 26.3104 16.4953C26.0294 15.934 25.6658 15.2572 25.3353 14.5803C25.2527 14.3162 24.9552 14.1676 24.6908 14.2501C22.03 14.7619 19.4353 15.5378 16.9233 16.5448C16.0969 16.8255 15.4028 17.4198 14.9897 18.2122C14.6261 18.9221 14.1633 19.5824 13.7832 20.2758C9.89944 27.0443 8.21373 34.8363 8.94091 42.5954C8.95743 42.843 9.08964 43.0906 9.27143 43.2557C12.5768 45.6825 16.2622 47.548 20.1955 48.7531C20.3608 48.7861 20.5261 48.7531 20.6583 48.6375C21.4515 47.4324 22.2118 46.2108 23.0381 44.9231C22.2614 44.5764 21.6334 44.3123 21.0053 44.0151C20.3773 43.718 19.7989 43.3878 19.1709 43.0576C19.8815 42.2322 19.9146 42.2322 20.774 42.5954C27.6821 45.633 35.5488 45.6165 42.4569 42.5624C43.1841 42.2487 43.432 42.3312 43.9112 43.1402L40.1101 44.9726" fill="#28D5C0"/>
<path d="M43.1838 33.0699C43.1838 34.1925 42.8533 35.2986 42.1922 36.2066C40.9858 37.9235 38.6059 38.3197 36.8872 37.1146C36.5732 36.8834 36.2922 36.6193 36.0443 36.3056C34.7883 34.7868 34.59 32.6572 35.532 30.9403C36.2426 29.372 37.9118 28.4641 39.6141 28.6952C41.3659 29.0253 42.7211 30.3956 43.0351 32.129C43.1012 32.4921 43.1342 32.8553 43.1673 33.0699" fill="#28D5C0"/>
<path d="M28.062 33.037C28.095 34.3412 27.6158 35.6289 26.7233 36.5864C25.3186 38.1052 22.9387 38.2207 21.4183 36.8175C21.3522 36.768 21.3026 36.7019 21.2365 36.6359C19.4186 34.7209 19.4186 31.7163 21.2365 29.8013C22.2116 28.7448 23.7155 28.3651 25.0707 28.8108C26.558 29.2896 27.6488 30.5442 27.9132 32.0795C27.9793 32.3932 28.0289 32.7068 28.0454 33.037" fill="#28D5C0"/>
</svg>
