<svg width="63" height="63" viewBox="0 0 63 63" fill="none" xmlns="http://www.w3.org/2000/svg">
<path d="M31.5496 62.9999C14.1213 62.9999 0 48.8613 0 31.432C0 23.0646 3.32362 15.0444 9.24331 9.12437C21.6283 -3.1291 41.6032 -3.02988 53.8724 9.35588C66.0425 21.659 66.0425 41.453 53.8724 53.7561C47.9693 59.6927 39.9331 63.0165 31.5661 62.9999H31.5496ZM26.3244 32.6887V49.5228H33.2858V32.6887H37.8827L38.4945 26.7687H33.2858V23.2795C33.1866 22.5023 33.7157 21.7913 34.4929 21.6755C34.5756 21.6755 34.6748 21.6755 34.7575 21.6755H38.4945V15.9208H33.3354C31.1528 15.7389 29.0362 16.665 27.6803 18.3848C26.7709 19.7242 26.2913 21.3117 26.3079 22.9323V26.7687H23.0008V32.6887H26.3079H26.3244Z" fill="#1877F2"/>
</svg>
