<svg width="52" height="49" viewBox="0 0 52 49" fill="none" xmlns="http://www.w3.org/2000/svg">
<g filter="url(#filter0_d_812_5517)">
<path d="M43.2082 8.32167C47.7395 12.915 47.7369 20.3724 43.2082 24.9631L30.1765 38.1729C27.55 40.8353 23.2893 40.8353 20.6628 38.1729L9.0001 26.3507L26.7886 8.31898C31.32 3.72566 38.6768 3.72835 43.2055 8.31898L43.2082 8.32167Z" fill="#00E6CA"/>
<g filter="url(#filter1_b_812_5517)">
<path d="M7.62786 8.32249C12.1592 3.72917 19.5161 3.73186 24.0448 8.32249L41.8333 26.3542L30.1706 38.1764C27.5441 40.8388 23.2833 40.8388 20.6569 38.1764L7.6252 24.9666C3.09384 20.3732 3.09649 12.9158 7.6252 8.32518L7.62786 8.32249Z" fill="white" fill-opacity="0.4"/>
</g>
</g>
<defs>
<filter id="filter0_d_812_5517" x="-4" y="0" width="60" height="51" filterUnits="userSpaceOnUse" color-interpolation-filters="sRGB">
<feFlood flood-opacity="0" result="BackgroundImageFix"/>
<feColorMatrix in="SourceAlpha" type="matrix" values="0 0 0 0 0 0 0 0 0 0 0 0 0 0 0 0 0 0 127 0" result="hardAlpha"/>
<feOffset dy="4"/>
<feGaussianBlur stdDeviation="2"/>
<feComposite in2="hardAlpha" operator="out"/>
<feColorMatrix type="matrix" values="0 0 0 0 0 0 0 0 0 0 0 0 0 0 0 0 0 0 0.25 0"/>
<feBlend mode="normal" in2="BackgroundImageFix" result="effect1_dropShadow_812_5517"/>
<feBlend mode="normal" in="SourceGraphic" in2="effect1_dropShadow_812_5517" result="shape"/>
</filter>
<filter id="filter1_b_812_5517" x="-3.77222" y="-3.12146" width="53.6055" height="51.2947" filterUnits="userSpaceOnUse" color-interpolation-filters="sRGB">
<feFlood flood-opacity="0" result="BackgroundImageFix"/>
<feGaussianBlur in="BackgroundImageFix" stdDeviation="4"/>
<feComposite in2="SourceAlpha" operator="in" result="effect1_backgroundBlur_812_5517"/>
<feBlend mode="normal" in="SourceGraphic" in2="effect1_backgroundBlur_812_5517" result="shape"/>
</filter>
</defs>
</svg>
