<svg width="265" height="257" viewBox="0 0 265 257" fill="none" xmlns="http://www.w3.org/2000/svg">
<circle cx="131.361" cy="137.029" r="119.101" stroke="#03D5C0"/>
<path d="M120.416 16.2197C123.977 16.2197 126.864 13.3589 126.864 9.82989C126.864 6.30089 123.977 3.44006 120.416 3.44006C116.855 3.44006 113.968 6.30089 113.968 9.82989C113.968 13.3589 116.855 16.2197 120.416 16.2197Z" fill="#03D5C0"/>
<path d="M142.927 45.5731C147.961 45.5731 152.042 41.5289 152.042 36.5401C152.042 31.5513 147.961 27.5071 142.927 27.5071C137.892 27.5071 133.811 31.5513 133.811 36.5401C133.811 41.5289 137.892 45.5731 142.927 45.5731Z" fill="#03D5C0"/>
<g filter="url(#filter0_b_753_6536)">
<path d="M118.71 12.5368L129.561 1.78374C130.556 0.797798 132.167 0.797798 133.162 1.78374L144.013 12.5368C150.995 19.4561 150.995 30.6916 144.013 37.6109C137.03 44.5302 125.692 44.5302 118.71 37.6109C111.728 30.6916 111.728 19.4561 118.71 12.5368Z" fill="white" fill-opacity="0.4"/>
</g>
<path opacity="0.9" d="M36.7244 103.571C40.114 103.571 42.8618 100.849 42.8618 97.4914C42.8618 94.1338 40.114 91.412 36.7244 91.412H28.431C25.0415 91.412 22.2936 94.1338 22.2936 97.4914C22.2936 100.849 25.0415 103.571 28.431 103.571H36.7244Z" fill="#03D5C0"/>
<path d="M22.2129 97.4184C22.2129 100.777 24.9596 103.5 28.3478 103.5C31.736 103.5 34.4827 100.777 34.4827 97.4184V89.2C34.4827 85.8411 31.736 83.1181 28.3478 83.1181C24.9596 83.1181 22.2129 85.8411 22.2129 89.2V97.4184Z" fill="#03D5C0"/>
<g filter="url(#filter1_b_753_6536)">
<path d="M9.4903 98.7131C0.632512 107.491 -2.60144 118.516 2.26475 123.338C7.13094 128.16 18.2566 124.956 27.1143 116.178C35.9721 107.4 34.4619 101.076 29.5957 96.2541C24.7296 91.4319 18.3481 89.9354 9.4903 98.7131Z" fill="white" fill-opacity="0.4"/>
</g>
<path d="M246.012 112.607C246.012 110.641 244.404 109.047 242.42 109.047C240.436 109.047 238.828 110.641 238.828 112.607V121.762C238.828 123.728 240.436 125.321 242.42 125.321C244.404 125.321 246.012 123.728 246.012 121.762V112.607Z" fill="#03D5C0"/>
<path d="M253.828 99.8699L248.23 114.472C247.563 116.21 248.862 118.075 250.74 118.075H261.936C263.813 118.075 265.112 116.21 264.445 114.472L258.847 99.8699C257.972 97.5844 254.707 97.5844 253.832 99.8699H253.828Z" fill="#03D5C0"/>
<g filter="url(#filter2_b_753_6536)">
<path d="M238.015 86.1261L228.158 111.753C226.982 114.813 229.262 118.093 232.563 118.093H252.282C255.587 118.093 257.867 114.813 256.687 111.753L246.83 86.1261C245.288 82.1155 239.561 82.1155 238.015 86.1261Z" fill="white" fill-opacity="0.4"/>
</g>
<path d="M254.296 118.088V120.163C254.296 121.28 255.211 122.186 256.338 122.186C257.464 122.186 258.379 121.28 258.379 120.163V118.088H254.296Z" fill="#03D5C0"/>
<path d="M197.544 244.18C201.067 244.18 203.923 241.35 203.923 237.859C203.923 234.368 201.067 231.538 197.544 231.538C194.022 231.538 191.166 234.368 191.166 237.859C191.166 241.35 194.022 244.18 197.544 244.18Z" fill="#03D5C0"/>
<path d="M224.039 216.682C226.124 216.682 227.814 215.007 227.814 212.942C227.814 210.876 226.124 209.201 224.039 209.201C221.954 209.201 220.264 210.876 220.264 212.942C220.264 215.007 221.954 216.682 224.039 216.682Z" fill="#03D5C0"/>
<g filter="url(#filter3_b_753_6536)">
<path d="M211.045 243.96C221.267 243.96 229.554 235.748 229.554 225.618C229.554 215.488 221.267 207.276 211.045 207.276C200.823 207.276 192.536 215.488 192.536 225.618C192.536 235.748 200.823 243.96 211.045 243.96Z" fill="white" fill-opacity="0.4"/>
</g>
<path d="M219.479 222.295H215.179C214.746 222.295 214.394 221.946 214.394 221.516V217.256C214.394 216.826 214.043 216.477 213.609 216.477H208.472C208.038 216.477 207.686 216.826 207.686 217.256V221.516C207.686 221.946 207.335 222.295 206.901 222.295H202.601C202.168 222.295 201.816 222.643 201.816 223.073V228.163C201.816 228.593 202.168 228.942 202.601 228.942H206.901C207.335 228.942 207.686 229.29 207.686 229.72V233.981C207.686 234.411 208.038 234.759 208.472 234.759H213.609C214.043 234.759 214.394 234.411 214.394 233.981V229.72C214.394 229.29 214.746 228.942 215.179 228.942H219.479C219.913 228.942 220.264 228.593 220.264 228.163V223.073C220.264 222.643 219.913 222.295 219.479 222.295Z" fill="#03D5C0"/>
<path d="M70.5563 214.436H39.6949C37.1953 214.436 35.1689 216.444 35.1689 218.921V237.894C35.1689 240.371 37.1953 242.379 39.6949 242.379H70.5563C73.056 242.379 75.0823 240.371 75.0823 237.894V218.921C75.0823 216.444 73.056 214.436 70.5563 214.436Z" fill="#28D5C0"/>
<g filter="url(#filter4_b_753_6536)">
<path d="M55.1815 239.408L40.6276 235.069C39.4533 234.719 38.6484 233.648 38.6484 232.43V211.615C38.6484 209.77 40.4448 208.444 42.2295 208.976L55.1815 212.837V239.404V239.408Z" fill="white" fill-opacity="0.3"/>
</g>
<g filter="url(#filter5_b_753_6536)">
<path d="M55.1821 239.408L69.736 235.069C70.9103 234.719 71.7151 233.648 71.7151 232.43V211.615C71.7151 209.77 69.9187 208.444 68.134 208.976L55.1821 212.819V239.404V239.408Z" fill="white" fill-opacity="0.5"/>
</g>
<path d="M67.2213 123.354V151.274H61.6213V123.354H67.2213ZM100.274 128.794C102.994 128.794 105.181 129.634 106.834 131.314C108.514 132.968 109.354 135.288 109.354 138.274V151.274H103.754V139.034C103.754 137.301 103.314 135.981 102.434 135.074C101.554 134.141 100.354 133.674 98.8341 133.674C97.3141 133.674 96.1008 134.141 95.1941 135.074C94.3141 135.981 93.8741 137.301 93.8741 139.034V151.274H88.2741V139.034C88.2741 137.301 87.8341 135.981 86.9541 135.074C86.0741 134.141 84.8741 133.674 83.3541 133.674C81.8075 133.674 80.5808 134.141 79.6741 135.074C78.7941 135.981 78.3541 137.301 78.3541 139.034V151.274H72.7541V129.114H78.3541V131.794C79.0741 130.861 79.9941 130.128 81.1141 129.594C82.2608 129.061 83.5141 128.794 84.8741 128.794C86.6075 128.794 88.1541 129.168 89.5141 129.914C90.8741 130.634 91.9275 131.674 92.6741 133.034C93.3941 131.754 94.4341 130.728 95.7941 129.954C97.1808 129.181 98.6741 128.794 100.274 128.794ZM120.268 132.314C120.988 131.301 121.975 130.461 123.228 129.794C124.508 129.101 125.962 128.754 127.588 128.754C129.482 128.754 131.188 129.221 132.708 130.154C134.255 131.088 135.468 132.421 136.348 134.154C137.255 135.861 137.708 137.848 137.708 140.114C137.708 142.381 137.255 144.394 136.348 146.154C135.468 147.888 134.255 149.234 132.708 150.194C131.188 151.154 129.482 151.634 127.588 151.634C125.962 151.634 124.522 151.301 123.268 150.634C122.042 149.968 121.042 149.128 120.268 148.114V161.834H114.668V129.114H120.268V132.314ZM131.988 140.114C131.988 138.781 131.708 137.634 131.148 136.674C130.615 135.688 129.895 134.941 128.988 134.434C128.108 133.928 127.148 133.674 126.108 133.674C125.095 133.674 124.135 133.941 123.228 134.474C122.348 134.981 121.628 135.728 121.068 136.714C120.535 137.701 120.268 138.861 120.268 140.194C120.268 141.528 120.535 142.688 121.068 143.674C121.628 144.661 122.348 145.421 123.228 145.954C124.135 146.461 125.095 146.714 126.108 146.714C127.148 146.714 128.108 146.448 128.988 145.914C129.895 145.381 130.615 144.621 131.148 143.634C131.708 142.648 131.988 141.474 131.988 140.114ZM140.338 140.114C140.338 137.874 140.778 135.888 141.658 134.154C142.564 132.421 143.778 131.088 145.298 130.154C146.844 129.221 148.564 128.754 150.458 128.754C152.111 128.754 153.551 129.088 154.778 129.754C156.031 130.421 157.031 131.261 157.778 132.274V129.114H163.418V151.274H157.778V148.034C157.058 149.074 156.058 149.941 154.778 150.634C153.524 151.301 152.071 151.634 150.418 151.634C148.551 151.634 146.844 151.154 145.298 150.194C143.778 149.234 142.564 147.888 141.658 146.154C140.778 144.394 140.338 142.381 140.338 140.114ZM157.778 140.194C157.778 138.834 157.511 137.674 156.978 136.714C156.444 135.728 155.724 134.981 154.818 134.474C153.911 133.941 152.938 133.674 151.898 133.674C150.858 133.674 149.898 133.928 149.018 134.434C148.138 134.941 147.418 135.688 146.858 136.674C146.324 137.634 146.058 138.781 146.058 140.114C146.058 141.448 146.324 142.621 146.858 143.634C147.418 144.621 148.138 145.381 149.018 145.914C149.924 146.448 150.884 146.714 151.898 146.714C152.938 146.714 153.911 146.461 154.818 145.954C155.724 145.421 156.444 144.674 156.978 143.714C157.511 142.728 157.778 141.554 157.778 140.194ZM167.447 140.194C167.447 137.901 167.914 135.901 168.847 134.194C169.78 132.461 171.074 131.128 172.727 130.194C174.38 129.234 176.274 128.754 178.407 128.754C181.154 128.754 183.42 129.448 185.207 130.834C187.02 132.194 188.234 134.114 188.847 136.594H182.807C182.487 135.634 181.94 134.888 181.167 134.354C180.42 133.794 179.487 133.514 178.367 133.514C176.767 133.514 175.5 134.101 174.567 135.274C173.634 136.421 173.167 138.061 173.167 140.194C173.167 142.301 173.634 143.941 174.567 145.114C175.5 146.261 176.767 146.834 178.367 146.834C180.634 146.834 182.114 145.821 182.807 143.794H188.847C188.234 146.194 187.02 148.101 185.207 149.514C183.394 150.928 181.127 151.634 178.407 151.634C176.274 151.634 174.38 151.168 172.727 150.234C171.074 149.274 169.78 147.941 168.847 146.234C167.914 144.501 167.447 142.488 167.447 140.194ZM199.469 133.714V144.434C199.469 145.181 199.643 145.728 199.989 146.074C200.363 146.394 200.976 146.554 201.829 146.554H204.429V151.274H200.909C196.189 151.274 193.829 148.981 193.829 144.394V133.714H191.189V129.114H193.829V123.634H199.469V129.114H204.429V133.714H199.469Z" fill="white"/>
<defs>
<filter id="filter0_b_753_6536" x="105.473" y="-6.95569" width="51.7764" height="57.756" filterUnits="userSpaceOnUse" color-interpolation-filters="sRGB">
<feFlood flood-opacity="0" result="BackgroundImageFix"/>
<feGaussianBlur in="BackgroundImageFix" stdDeviation="4"/>
<feComposite in2="SourceAlpha" operator="in" result="effect1_backgroundBlur_753_6536"/>
<feBlend mode="normal" in="SourceGraphic" in2="effect1_backgroundBlur_753_6536" result="shape"/>
</filter>
<filter id="filter1_b_753_6536" x="-8" y="84.3772" width="49.5081" height="49.2052" filterUnits="userSpaceOnUse" color-interpolation-filters="sRGB">
<feFlood flood-opacity="0" result="BackgroundImageFix"/>
<feGaussianBlur in="BackgroundImageFix" stdDeviation="4"/>
<feComposite in2="SourceAlpha" operator="in" result="effect1_backgroundBlur_753_6536"/>
<feBlend mode="normal" in="SourceGraphic" in2="effect1_backgroundBlur_753_6536" result="shape"/>
</filter>
<filter id="filter2_b_753_6536" x="219.845" y="75.1182" width="45.1572" height="50.9746" filterUnits="userSpaceOnUse" color-interpolation-filters="sRGB">
<feFlood flood-opacity="0" result="BackgroundImageFix"/>
<feGaussianBlur in="BackgroundImageFix" stdDeviation="4"/>
<feComposite in2="SourceAlpha" operator="in" result="effect1_backgroundBlur_753_6536"/>
<feBlend mode="normal" in="SourceGraphic" in2="effect1_backgroundBlur_753_6536" result="shape"/>
</filter>
<filter id="filter3_b_753_6536" x="184.536" y="199.276" width="53.0181" height="52.6833" filterUnits="userSpaceOnUse" color-interpolation-filters="sRGB">
<feFlood flood-opacity="0" result="BackgroundImageFix"/>
<feGaussianBlur in="BackgroundImageFix" stdDeviation="4"/>
<feComposite in2="SourceAlpha" operator="in" result="effect1_backgroundBlur_753_6536"/>
<feBlend mode="normal" in="SourceGraphic" in2="effect1_backgroundBlur_753_6536" result="shape"/>
</filter>
<filter id="filter4_b_753_6536" x="30.6484" y="200.857" width="32.533" height="46.5507" filterUnits="userSpaceOnUse" color-interpolation-filters="sRGB">
<feFlood flood-opacity="0" result="BackgroundImageFix"/>
<feGaussianBlur in="BackgroundImageFix" stdDeviation="4"/>
<feComposite in2="SourceAlpha" operator="in" result="effect1_backgroundBlur_753_6536"/>
<feBlend mode="normal" in="SourceGraphic" in2="effect1_backgroundBlur_753_6536" result="shape"/>
</filter>
<filter id="filter5_b_753_6536" x="47.1821" y="200.857" width="32.533" height="46.5507" filterUnits="userSpaceOnUse" color-interpolation-filters="sRGB">
<feFlood flood-opacity="0" result="BackgroundImageFix"/>
<feGaussianBlur in="BackgroundImageFix" stdDeviation="4"/>
<feComposite in2="SourceAlpha" operator="in" result="effect1_backgroundBlur_753_6536"/>
<feBlend mode="normal" in="SourceGraphic" in2="effect1_backgroundBlur_753_6536" result="shape"/>
</filter>
</defs>
</svg>
