<svg width="63" height="63" viewBox="0 0 63 63" fill="none" xmlns="http://www.w3.org/2000/svg">
<path d="M0 31.5C0 14.1156 14.0991 0 31.5 0C48.9009 0 63 14.0991 63 31.5C63 48.9009 48.9009 63 31.5 63C14.0991 63 0 48.9009 0 31.5V31.5ZM24.0377 13.5212C22.5354 13.5542 21.0495 13.8349 19.6462 14.3632C17.2193 15.3042 15.3042 17.2193 14.3632 19.6462C13.8349 21.0495 13.5542 22.5354 13.5212 24.0377C13.4387 25.9693 13.4222 26.5802 13.4222 31.5C13.4222 36.4198 13.4387 37.0307 13.5377 38.9623C13.5708 40.4646 13.8514 41.9505 14.3797 43.3538C15.3208 45.7807 17.2359 47.6958 19.6792 48.6368C21.0826 49.1651 22.5684 49.4458 24.0708 49.4788C26.0024 49.5613 26.6132 49.5943 31.533 49.5943C36.4528 49.5943 37.0637 49.5778 38.9953 49.4788C40.4976 49.4458 41.9835 49.1651 43.3868 48.6368C45.8137 47.6958 47.7288 45.7807 48.6698 43.3538C49.1981 41.9505 49.4788 40.4646 49.5118 38.9623C49.5943 37.0307 49.6274 36.4198 49.6274 31.5C49.6274 26.5802 49.6109 25.9693 49.5118 24.0377C49.4788 22.5354 49.1981 21.0495 48.6698 19.6462C47.7288 17.2193 45.7972 15.2877 43.3703 14.3632C41.967 13.8349 40.4811 13.5542 38.9788 13.5212C37.0472 13.4387 36.4363 13.4057 31.5165 13.4057C26.5967 13.4057 25.9859 13.4222 24.0543 13.5212H24.0377ZM24.1863 46.2264C23.0472 46.2264 21.908 45.9953 20.8349 45.5991C19.25 44.9882 18.0118 43.75 17.4009 42.1651C17.0047 41.092 16.7901 39.9528 16.7736 38.8137C16.691 36.8986 16.6745 36.3373 16.6745 31.5C16.6745 26.6627 16.691 26.1014 16.7736 24.1863C16.7736 23.0472 16.9882 21.908 17.4009 20.8349C18.0118 19.25 19.25 18.0118 20.8349 17.4009C21.908 17.0047 23.0472 16.7901 24.1863 16.7736C26.1014 16.691 26.6627 16.6745 31.5 16.6745C36.3373 16.6745 36.8986 16.691 38.8137 16.7736C39.9528 16.7736 41.092 16.9882 42.1651 17.4009C43.75 18.0118 44.9882 19.25 45.5991 20.8349C45.9953 21.908 46.2099 23.0472 46.2264 24.2028C46.309 26.1014 46.3255 26.6792 46.3255 31.5165C46.3255 36.3538 46.309 36.9151 46.2264 38.8302C46.2264 39.9693 45.9953 41.1085 45.5991 42.1816C44.9882 43.7665 43.75 45.0047 42.1651 45.6156C41.092 46.0118 39.9528 46.2264 38.8137 46.2429C36.8986 46.3255 36.3373 46.342 31.5 46.342C26.6627 46.342 26.1014 46.342 24.1863 46.2429V46.2264ZM22.2052 31.5C22.2052 36.6344 26.3656 40.7948 31.5 40.7948C36.6344 40.7948 40.7948 36.6344 40.7948 31.5C40.7948 26.3656 36.6344 22.2052 31.5 22.2052C26.3656 22.2052 22.2052 26.3656 22.2052 31.5ZM38.9788 21.842C38.9788 23.0472 39.9528 24.0047 41.158 24.0047C42.3632 24.0047 43.3208 23.0307 43.3208 21.8255C43.3208 20.6203 42.3467 19.6627 41.158 19.6627C39.9528 19.6627 38.9788 20.6368 38.9788 21.8255V21.842ZM25.4576 31.5C25.4576 28.1651 28.1651 25.4741 31.4835 25.4741C34.8019 25.4741 37.5094 28.1816 37.5094 31.5C37.5094 34.8184 34.8019 37.5259 31.4835 37.5259C28.1486 37.5259 25.4576 34.8184 25.4576 31.5Z" fill="url(#paint0_linear_2158_6180)"/>
<defs>
<linearGradient id="paint0_linear_2158_6180" x1="12.734" y1="4.69149" x2="39.5426" y2="63" gradientUnits="userSpaceOnUse">
<stop stop-color="#7203FF"/>
<stop offset="0.197917" stop-color="#C728FF"/>
<stop offset="0.640625" stop-color="#ED1B27"/>
<stop offset="1" stop-color="#FFAF13"/>
</linearGradient>
</defs>
</svg>
