<svg width="40" height="37" viewBox="0 0 40 37" fill="none" xmlns="http://www.w3.org/2000/svg">
<path d="M21.3126 10.4266C21.3126 9.70176 20.725 9.11414 20.0001 9.11414C19.2753 9.11414 18.6876 9.70176 18.6876 10.4266V20.9266C18.6876 21.6515 19.2753 22.2391 20.0001 22.2391C20.725 22.2391 21.3126 21.6515 21.3126 20.9266V10.4266Z" fill="#03D5C0"/>
<path fill-rule="evenodd" clip-rule="evenodd" d="M24.0929 1.23408C21.4877 0.0741532 18.5126 0.0741532 15.9073 1.23408C14.2784 1.95933 12.963 3.34921 11.6046 5.27188C10.2505 7.18848 8.73402 9.81509 6.77491 13.2084L6.70332 13.3324C4.7442 16.7257 3.22772 19.3523 2.24494 21.4833C1.25906 23.621 0.7131 25.4551 0.899485 27.2285C1.19758 30.0646 2.68512 32.6411 4.99227 34.3174C6.43483 35.3654 8.2962 35.8097 10.6405 36.0248C12.9773 36.2392 16.0103 36.2391 19.9284 36.2391H20.0717C23.9899 36.2391 27.0229 36.2392 29.3598 36.0248C31.7041 35.8097 33.5654 35.3654 35.008 34.3174C37.3151 32.6411 38.8027 30.0646 39.1008 27.2285C39.2872 25.4551 38.7412 23.621 37.7553 21.4833C36.7725 19.3523 35.256 16.7256 33.2969 13.3323L33.2253 13.2082C31.2662 9.81502 29.7498 7.18845 28.3957 5.27188C27.0373 3.34921 25.7219 1.95933 24.0929 1.23408ZM16.975 3.63214C18.9006 2.7748 21.0996 2.7748 23.0252 3.63214C23.9935 4.06326 24.9715 4.97443 26.2518 6.78657C27.5281 8.59312 28.9855 11.1148 30.9878 14.5829C32.9901 18.051 34.4453 20.574 35.3716 22.5826C36.3008 24.5974 36.6009 25.8999 36.4902 26.9541C36.2698 29.0504 35.1703 30.9547 33.465 32.1937C32.6075 32.8167 31.3295 33.208 29.12 33.4107C26.9173 33.6128 24.0048 33.6141 20.0001 33.6141C15.9955 33.6141 13.083 33.6128 10.8803 33.4107C8.67078 33.208 7.39272 32.8167 6.53521 32.1937C4.82992 30.9547 3.73044 29.0504 3.5101 26.9541C3.39931 25.8999 3.69945 24.5974 4.62866 22.5826C5.555 20.574 7.01011 18.051 9.01243 14.5829C11.0148 11.1148 12.4721 8.59312 13.7485 6.78657C15.0288 4.97443 16.0067 4.06326 16.975 3.63214Z" fill="#03D5C0"/>
<path d="M21.7502 26.1766C21.7502 27.1431 20.9667 27.9266 20.0002 27.9266C19.0337 27.9266 18.2502 27.1431 18.2502 26.1766C18.2502 25.2101 19.0337 24.4266 20.0002 24.4266C20.9667 24.4266 21.7502 25.2101 21.7502 26.1766Z" fill="#03D5C0"/>
</svg>
