<svg width="68" height="68" viewBox="0 0 68 68" fill="none" xmlns="http://www.w3.org/2000/svg">
<path d="M33.7527 67.5C19.1899 67.5 7.37938 55.7154 7.36646 41.1525C7.36646 41.1525 7.36646 41.1267 7.36646 41.1138C7.36646 34.1619 10.1059 27.4942 15.0032 22.5581C14.8223 23.8374 14.7189 25.1166 14.7189 26.4088C14.7189 32.1848 16.6055 37.8058 20.1073 42.393C21.8001 44.6156 23.8288 46.5538 26.1289 48.1432C28.4548 49.7455 31.0262 50.9731 33.7398 51.7484C36.4534 50.9602 39.0248 49.7455 41.3507 48.1432C43.6508 46.5538 45.6795 44.6156 47.3723 42.393C50.8741 37.8058 52.7736 32.1848 52.7607 26.4088C52.7607 25.1166 52.6702 23.8374 52.4893 22.5581C54.3759 24.4576 55.9523 26.6285 57.1928 29.0061C62.4649 39.2143 60.5266 51.645 52.3988 59.7599C47.4498 64.7219 40.7434 67.5 33.7398 67.4871L33.7527 67.5Z" fill="url(#paint0_linear_624_7638)"/>
<path d="M41.1057 52.795C38.6248 52.795 36.1438 52.4461 33.7533 51.7612C36.4668 50.973 39.0383 49.7584 41.3642 48.1431C43.6643 46.5538 45.693 44.6155 47.3857 42.393C50.8875 37.8057 52.787 32.1848 52.7741 26.4087C52.7741 25.1165 52.6837 23.8373 52.5028 22.558C42.2816 12.2077 25.5996 12.0914 15.2364 22.3125C15.1588 22.3901 15.0684 22.4805 14.9908 22.558C14.8358 23.5918 14.7453 24.6255 14.7195 25.6593C15.133 11.0964 27.2665 -0.378113 41.8294 0.00953993C48.5745 0.203367 54.9967 2.96863 59.7648 7.73676C70.0634 18.0483 70.0505 34.7691 59.7389 45.0678C57.3355 47.4583 54.5056 49.3707 51.3786 50.7017C48.1352 52.0843 44.6334 52.7821 41.1057 52.7821V52.795Z" fill="url(#paint1_linear_624_7638)"/>
<path d="M26.3992 52.7952C11.8363 52.8081 0.0129218 41.0105 0 26.4348C0 19.4312 2.77818 12.6989 7.74014 7.74987C18.0517 -2.54878 34.7596 -2.54878 45.0582 7.74987C49.064 11.7556 51.6742 16.9502 52.5012 22.5453C42.2671 12.195 25.5851 12.0916 15.2218 22.3127C15.1443 22.3902 15.0668 22.4678 14.9893 22.5453C14.8084 23.8246 14.7179 25.1038 14.7179 26.396C14.7179 38.1419 22.471 48.4664 33.7517 51.7485C31.3611 52.4334 28.8931 52.7952 26.3992 52.7823V52.7952Z" fill="url(#paint2_linear_624_7638)"/>
<defs>
<linearGradient id="paint0_linear_624_7638" x1="5.80835" y1="48.9009" x2="53.017" y2="36.5805" gradientUnits="userSpaceOnUse">
<stop stop-color="#00FFE0"/>
<stop offset="1" stop-color="#28D5C0" stop-opacity="0"/>
</linearGradient>
<linearGradient id="paint1_linear_624_7638" x1="56.9847" y1="39.7954" x2="35.6233" y2="2.433" gradientUnits="userSpaceOnUse">
<stop stop-color="#00FFE0"/>
<stop offset="1" stop-color="#28D5C0" stop-opacity="0"/>
</linearGradient>
<linearGradient id="paint2_linear_624_7638" x1="32.0718" y1="4.98577" x2="10.6572" y2="47.6005" gradientUnits="userSpaceOnUse">
<stop stop-color="#00FFE0"/>
<stop offset="1" stop-color="#28D5C0" stop-opacity="0"/>
</linearGradient>
</defs>
</svg>
