<svg width="44" height="42" viewBox="0 0 44 42" fill="none" xmlns="http://www.w3.org/2000/svg">
<path fill-rule="evenodd" clip-rule="evenodd" d="M9.03807 10.5124C9.03807 8.45451 10.7063 6.78625 12.7642 6.78625H19.6595C21.5024 6.78625 22.9964 8.28022 22.9964 10.1231C22.9964 10.8603 23.594 11.4579 24.3311 11.4579H25.1178C27.2331 11.4579 29.0936 13.0996 29.0074 15.3494C28.8969 18.2339 28.3367 22.8607 26.0899 26.9553C25.4809 28.0652 24.6675 29.1555 23.7882 30.1714L23.722 30.2479C22.4571 31.7094 21.4024 32.928 20.2686 33.7587C19.0491 34.6521 17.7475 35.0971 16.0172 35.0971C14.287 35.0971 12.9854 34.6521 11.7659 33.7587C10.632 32.928 9.57737 31.7094 8.31247 30.2479L8.24628 30.1714C7.367 29.1555 6.55361 28.0652 5.94458 26.9553C3.77008 22.9925 3.17391 18.809 3.0384 16.1248C2.92427 13.864 4.79814 12.2365 6.90177 12.2365H7.31403C8.26619 12.2365 9.03807 11.4646 9.03807 10.5124Z" fill="#1ED9C5"/>
<g filter="url(#filter0_b_753_6284)">
<path d="M39.3795 0H19.7979C17.7129 0 16.0215 1.80932 16.0215 4.03516V37.8482C16.0215 40.0785 17.7129 41.8833 19.7979 41.8833H39.3795C41.4645 41.8833 43.156 40.0785 43.156 37.8482V4.03516C43.156 1.80932 41.4645 0 39.3795 0ZM37.8555 38.9812C37.7006 39.1469 37.4829 39.25 37.2485 39.25H21.929C21.4559 39.25 21.0707 38.8424 21.0707 38.3363C21.0707 38.0855 21.167 37.8526 21.3219 37.6869C21.4769 37.5212 21.6904 37.4182 21.929 37.4182H37.2485C37.7216 37.4182 38.1068 37.8302 38.1068 38.3363C38.1068 38.5871 38.0104 38.82 37.8555 38.9812Z" fill="white" fill-opacity="0.4"/>
</g>
<defs>
<filter id="filter0_b_753_6284" x="8.02148" y="-8" width="43.1345" height="57.8833" filterUnits="userSpaceOnUse" color-interpolation-filters="sRGB">
<feFlood flood-opacity="0" result="BackgroundImageFix"/>
<feGaussianBlur in="BackgroundImageFix" stdDeviation="4"/>
<feComposite in2="SourceAlpha" operator="in" result="effect1_backgroundBlur_753_6284"/>
<feBlend mode="normal" in="SourceGraphic" in2="effect1_backgroundBlur_753_6284" result="shape"/>
</filter>
</defs>
</svg>
