<svg width="97" height="27" viewBox="0 0 97 27" fill="none" xmlns="http://www.w3.org/2000/svg">
<path d="M15 3.75C14.5858 3.75 14.25 4.08579 14.25 4.5C14.25 4.91421 14.5858 5.25 15 5.25H16C18.3472 5.25 20.25 7.15279 20.25 9.5V10.5C20.25 10.9142 20.5858 11.25 21 11.25C21.4142 11.25 21.75 10.9142 21.75 10.5V9.5C21.75 6.32436 19.1756 3.75 16 3.75H15Z" fill="#03D5C0"/>
<path d="M8 3.75C4.82436 3.75 2.25 6.32436 2.25 9.5V10.5C2.25 10.9142 2.58579 11.25 3 11.25C3.41421 11.25 3.75 10.9142 3.75 10.5V9.5C3.75 7.15279 5.65279 5.25 8 5.25H9C9.41421 5.25 9.75 4.91421 9.75 4.5C9.75 4.08579 9.41421 3.75 9 3.75H8Z" fill="#03D5C0"/>
<path d="M12 8.75C9.37665 8.75 7.25 10.8766 7.25 13.5C7.25 16.1234 9.37665 18.25 12 18.25C14.6234 18.25 16.75 16.1234 16.75 13.5C16.75 10.8766 14.6234 8.75 12 8.75Z" fill="#03D5C0"/>
<path d="M3.75 16.5C3.75 16.0858 3.41421 15.75 3 15.75C2.58579 15.75 2.25 16.0858 2.25 16.5V17.5C2.25 20.6756 4.82436 23.25 8 23.25H9C9.41422 23.25 9.75 22.9142 9.75 22.5C9.75 22.0858 9.41422 21.75 9 21.75H8C5.65279 21.75 3.75 19.8472 3.75 17.5V16.5Z" fill="#03D5C0"/>
<path d="M21.75 16.5C21.75 16.0858 21.4142 15.75 21 15.75C20.5858 15.75 20.25 16.0858 20.25 16.5V17.5C20.25 19.8472 18.3472 21.75 16 21.75H15C14.5858 21.75 14.25 22.0858 14.25 22.5C14.25 22.9142 14.5858 23.25 15 23.25H16C19.1756 23.25 21.75 20.6756 21.75 17.5V16.5Z" fill="#03D5C0"/>
<path d="M42.092 11.252C42.092 11.7747 41.966 12.2647 41.714 12.722C41.4713 13.1793 41.084 13.548 40.552 13.828C40.0293 14.108 39.3667 14.248 38.564 14.248H36.926V18H34.966V8.228H38.564C39.32 8.228 39.964 8.35867 40.496 8.62C41.028 8.88133 41.4247 9.24067 41.686 9.698C41.9567 10.1553 42.092 10.6733 42.092 11.252ZM38.48 12.666C39.0213 12.666 39.4227 12.5447 39.684 12.302C39.9453 12.05 40.076 11.7 40.076 11.252C40.076 10.3 39.544 9.824 38.48 9.824H36.926V12.666H38.48ZM45.4436 11.448C45.6956 11.0373 46.0222 10.7153 46.4236 10.482C46.8342 10.2487 47.3009 10.132 47.8236 10.132V12.19H47.3056C46.6896 12.19 46.2229 12.3347 45.9056 12.624C45.5976 12.9133 45.4436 13.4173 45.4436 14.136V18H43.4836V10.244H45.4436V11.448ZM52.5877 18.126C51.8411 18.126 51.1691 17.9627 50.5717 17.636C49.9744 17.3 49.5031 16.8287 49.1577 16.222C48.8217 15.6153 48.6537 14.9153 48.6537 14.122C48.6537 13.3287 48.8264 12.6287 49.1717 12.022C49.5264 11.4153 50.0071 10.9487 50.6137 10.622C51.2204 10.286 51.8971 10.118 52.6437 10.118C53.3904 10.118 54.0671 10.286 54.6737 10.622C55.2804 10.9487 55.7564 11.4153 56.1017 12.022C56.4564 12.6287 56.6337 13.3287 56.6337 14.122C56.6337 14.9153 56.4517 15.6153 56.0877 16.222C55.7331 16.8287 55.2477 17.3 54.6317 17.636C54.0251 17.9627 53.3437 18.126 52.5877 18.126ZM52.5877 16.418C52.9424 16.418 53.2737 16.334 53.5817 16.166C53.8991 15.9887 54.1511 15.7273 54.3377 15.382C54.5244 15.0367 54.6177 14.6167 54.6177 14.122C54.6177 13.3847 54.4217 12.82 54.0297 12.428C53.6471 12.0267 53.1757 11.826 52.6157 11.826C52.0557 11.826 51.5844 12.0267 51.2017 12.428C50.8284 12.82 50.6417 13.3847 50.6417 14.122C50.6417 14.8593 50.8237 15.4287 51.1877 15.83C51.5611 16.222 52.0277 16.418 52.5877 16.418ZM57.5675 14.094C57.5675 13.31 57.7215 12.6147 58.0295 12.008C58.3468 11.4013 58.7761 10.9347 59.3175 10.608C59.8588 10.2813 60.4608 10.118 61.1235 10.118C61.6275 10.118 62.1081 10.23 62.5655 10.454C63.0228 10.6687 63.3868 10.958 63.6575 11.322V7.64H65.6455V18H63.6575V16.852C63.4148 17.2347 63.0741 17.5427 62.6355 17.776C62.1968 18.0093 61.6881 18.126 61.1095 18.126C60.4561 18.126 59.8588 17.958 59.3175 17.622C58.7761 17.286 58.3468 16.8147 58.0295 16.208C57.7215 15.592 57.5675 14.8873 57.5675 14.094ZM63.6715 14.122C63.6715 13.646 63.5781 13.24 63.3915 12.904C63.2048 12.5587 62.9528 12.2973 62.6355 12.12C62.3181 11.9333 61.9775 11.84 61.6135 11.84C61.2495 11.84 60.9135 11.9287 60.6055 12.106C60.2975 12.2833 60.0455 12.5447 59.8495 12.89C59.6628 13.226 59.5695 13.6273 59.5695 14.094C59.5695 14.5607 59.6628 14.9713 59.8495 15.326C60.0455 15.6713 60.2975 15.9373 60.6055 16.124C60.9228 16.3107 61.2588 16.404 61.6135 16.404C61.9775 16.404 62.3181 16.3153 62.6355 16.138C62.9528 15.9513 63.2048 15.69 63.3915 15.354C63.5781 15.0087 63.6715 14.598 63.6715 14.122ZM74.8818 10.244V18H72.9078V17.02C72.6558 17.356 72.3244 17.622 71.9138 17.818C71.5124 18.0047 71.0738 18.098 70.5978 18.098C69.9911 18.098 69.4544 17.972 68.9878 17.72C68.5211 17.4587 68.1524 17.0807 67.8818 16.586C67.6204 16.082 67.4898 15.4847 67.4898 14.794V10.244H69.4498V14.514C69.4498 15.13 69.6038 15.606 69.9118 15.942C70.2198 16.2687 70.6398 16.432 71.1718 16.432C71.7131 16.432 72.1378 16.2687 72.4458 15.942C72.7538 15.606 72.9078 15.13 72.9078 14.514V10.244H74.8818ZM76.3116 14.122C76.3116 13.3193 76.4749 12.6193 76.8016 12.022C77.1283 11.4153 77.5809 10.9487 78.1596 10.622C78.7383 10.286 79.4009 10.118 80.1476 10.118C81.1089 10.118 81.9023 10.3607 82.5276 10.846C83.1623 11.322 83.5869 11.994 83.8016 12.862H81.6876C81.5756 12.526 81.3843 12.2647 81.1136 12.078C80.8523 11.882 80.5256 11.784 80.1336 11.784C79.5736 11.784 79.1303 11.9893 78.8036 12.4C78.4769 12.8013 78.3136 13.3753 78.3136 14.122C78.3136 14.8593 78.4769 15.4333 78.8036 15.844C79.1303 16.2453 79.5736 16.446 80.1336 16.446C80.9269 16.446 81.4449 16.0913 81.6876 15.382H83.8016C83.5869 16.222 83.1623 16.8893 82.5276 17.384C81.8929 17.8787 81.0996 18.126 80.1476 18.126C79.4009 18.126 78.7383 17.9627 78.1596 17.636C77.5809 17.3 77.1283 16.8333 76.8016 16.236C76.4749 15.6293 76.3116 14.9247 76.3116 14.122ZM87.5195 11.854V15.606C87.5195 15.8673 87.5802 16.0587 87.7015 16.18C87.8322 16.292 88.0468 16.348 88.3455 16.348H89.2555V18H88.0235C86.3715 18 85.5455 17.1973 85.5455 15.592V11.854H84.6215V10.244H85.5455V8.326H87.5195V10.244H89.2555V11.854H87.5195ZM93.6332 18.126C92.9986 18.126 92.4292 18.014 91.9252 17.79C91.4212 17.5567 91.0199 17.244 90.7212 16.852C90.4319 16.46 90.2732 16.026 90.2452 15.55H92.2192C92.2566 15.8487 92.4012 16.096 92.6532 16.292C92.9146 16.488 93.2366 16.586 93.6192 16.586C93.9926 16.586 94.2819 16.5113 94.4872 16.362C94.7019 16.2127 94.8092 16.0213 94.8092 15.788C94.8092 15.536 94.6786 15.3493 94.4172 15.228C94.1652 15.0973 93.7592 14.9573 93.1992 14.808C92.6206 14.668 92.1446 14.5233 91.7712 14.374C91.4072 14.2247 91.0899 13.996 90.8192 13.688C90.5579 13.38 90.4272 12.9647 90.4272 12.442C90.4272 12.0127 90.5486 11.6207 90.7912 11.266C91.0432 10.9113 91.3979 10.6313 91.8552 10.426C92.3219 10.2207 92.8679 10.118 93.4932 10.118C94.4172 10.118 95.1546 10.3513 95.7052 10.818C96.2559 11.2753 96.5592 11.896 96.6152 12.68H94.7392C94.7112 12.372 94.5806 12.1293 94.3472 11.952C94.1232 11.7653 93.8199 11.672 93.4372 11.672C93.0826 11.672 92.8072 11.7373 92.6112 11.868C92.4246 11.9987 92.3312 12.1807 92.3312 12.414C92.3312 12.6753 92.4619 12.876 92.7232 13.016C92.9846 13.1467 93.3906 13.282 93.9412 13.422C94.5012 13.562 94.9632 13.7067 95.3272 13.856C95.6912 14.0053 96.0039 14.2387 96.2652 14.556C96.5359 14.864 96.6759 15.2747 96.6852 15.788C96.6852 16.236 96.5592 16.6373 96.3072 16.992C96.0646 17.3467 95.7099 17.6267 95.2432 17.832C94.7859 18.028 94.2492 18.126 93.6332 18.126Z" fill="#03D5C0"/>
</svg>
