<svg width="42" height="42" viewBox="0 0 42 42" fill="none" xmlns="http://www.w3.org/2000/svg">
<path fill-rule="evenodd" clip-rule="evenodd" d="M22.3125 1.67664C22.3125 0.951762 21.7249 0.364136 21 0.364136C20.2751 0.364136 19.6875 0.951762 19.6875 1.67664V7.36481C17.2965 7.37072 15.7259 7.42273 14.3905 7.85663C11.3271 8.85199 8.92535 11.2537 7.92999 14.3172C7.4961 15.6526 7.44408 17.2231 7.43817 19.6141H1.75C1.02513 19.6141 0.4375 20.2018 0.4375 20.9266C0.4375 21.6515 1.02513 22.2391 1.75 22.2391H7.43817C7.44408 24.6301 7.4961 26.2007 7.92999 27.5361C8.92535 30.5995 11.3271 33.0013 14.3905 33.9966C15.7259 34.4305 17.2965 34.4826 19.6875 34.4885V40.1766C19.6875 40.9015 20.2751 41.4891 21 41.4891C21.7249 41.4891 22.3125 40.9015 22.3125 40.1766V34.4885C24.7035 34.4826 26.2741 34.4305 27.6095 33.9966C30.6729 33.0013 33.0746 30.5995 34.07 27.5361C34.5039 26.2007 34.5559 24.6301 34.5618 22.2391H40.25C40.9749 22.2391 41.5625 21.6515 41.5625 20.9266C41.5625 20.2018 40.9749 19.6141 40.25 19.6141H34.5618C34.5559 17.2231 34.5039 15.6526 34.07 14.3172C33.0746 11.2537 30.6729 8.85199 27.6095 7.85663C26.2741 7.42273 24.7035 7.37072 22.3125 7.36481V1.67664ZM15.2017 10.3532C16.1205 10.0546 17.2589 10.0004 19.6875 9.99101V10.4266C19.6875 11.1515 20.2751 11.7391 21 11.7391C21.7249 11.7391 22.3125 11.1515 22.3125 10.4266V9.99101C24.7411 10.0004 25.8795 10.0546 26.7983 10.3532C29.0626 11.0889 30.8378 12.8641 31.5735 15.1283C31.872 16.0472 31.9263 17.1856 31.9356 19.6141H31.5C30.7751 19.6141 30.1875 20.2018 30.1875 20.9266C30.1875 21.6515 30.7751 22.2391 31.5 22.2391H31.9356C31.9263 24.6677 31.872 25.8061 31.5735 26.7249C30.8378 28.9892 29.0626 30.7644 26.7983 31.5001C25.8795 31.7987 24.7411 31.8529 22.3125 31.8623V31.4266C22.3125 30.7018 21.7249 30.1141 21 30.1141C20.2751 30.1141 19.6875 30.7018 19.6875 31.4266V31.8623C17.2589 31.8529 16.1205 31.7987 15.2017 31.5001C12.9374 30.7644 11.1622 28.9892 10.4265 26.7249C10.128 25.8061 10.0737 24.6677 10.0644 22.2391H10.5C11.2249 22.2391 11.8125 21.6515 11.8125 20.9266C11.8125 20.2018 11.2249 19.6141 10.5 19.6141H10.0644C10.0737 17.1856 10.128 16.0472 10.4265 15.1283C11.1622 12.8641 12.9374 11.0889 15.2017 10.3532Z" fill="#03D5C0"/>
<path fill-rule="evenodd" clip-rule="evenodd" d="M16.625 20.9266C16.625 23.3429 18.5838 25.3016 21 25.3016C23.4162 25.3016 25.375 23.3429 25.375 20.9266C25.375 18.5104 23.4162 16.5516 21 16.5516C18.5838 16.5516 16.625 18.5104 16.625 20.9266ZM19.25 20.9266C19.25 21.8931 20.0335 22.6766 21 22.6766C21.9665 22.6766 22.75 21.8931 22.75 20.9266C22.75 19.9601 21.9665 19.1766 21 19.1766C20.0335 19.1766 19.25 19.9601 19.25 20.9266Z" fill="#03D5C0"/>
</svg>
