<svg width="63" height="63" viewBox="0 0 63 63" fill="none" xmlns="http://www.w3.org/2000/svg">
<path d="M39.0829 0.942605C22.2365 -3.2616 5.17588 6.99337 0.972534 23.8267C0.890115 24.1399 0.824172 24.4367 0.758237 24.75C0.445046 26.1514 0.329687 27.5857 0.115398 29.0036C0.0824307 29.185 0.0494512 29.3499 0 29.5312V33.4716C0.164837 34.6422 0.26377 35.8293 0.494542 36.9834C2.40665 48.31 10.4177 57.6582 21.3299 61.2853C23.8355 62.1921 26.4564 62.7362 29.1268 62.9011C29.2586 62.9176 29.407 62.9505 29.5389 63H33.4784C34.6323 62.8351 35.7862 62.7197 36.94 62.5219C54.0666 59.5212 65.5228 43.2155 62.5227 26.1019C60.3799 13.819 51.1819 3.95974 39.0829 0.959092M46.55 34.7246C46.2203 34.9225 46.0391 35.2852 46.072 35.6644C46.1215 39.5554 43.9456 42.0779 40.7972 43.9244C37.6983 45.6721 34.1378 46.4799 30.5773 46.2326C27.2971 46.1502 24.1157 45.1445 21.3794 43.3309C19.22 42.0119 17.6871 39.8521 17.1761 37.3626C17.0772 36.769 17.1101 36.126 17.0277 35.5325C16.9947 35.2687 16.8629 35.0379 16.6651 34.873C14.9837 33.7849 14.5057 31.5426 15.5936 29.8774C16.6815 28.2122 18.9233 27.7176 20.5882 28.8058C20.8684 29.0366 21.264 29.0366 21.5442 28.8058C24.0662 27.1736 26.9839 26.2503 29.9839 26.1184C30.5443 26.0854 30.7751 25.9535 30.8905 25.36C31.385 22.8375 31.9454 20.3149 32.4894 17.7924C32.6707 16.9186 32.9345 16.7372 33.8246 16.9186C35.5554 17.2483 37.2862 17.5946 39.0005 17.9573C39.3302 18.0727 39.6928 17.9573 39.8906 17.677C40.6324 16.8197 41.8522 16.5724 42.8577 17.1164C43.8797 17.6275 44.4236 18.7981 44.1434 19.9028C43.8797 20.9744 42.9401 21.7493 41.8357 21.8153C40.7148 21.8647 39.6928 21.1558 39.3631 20.0676C39.3137 19.7379 39.0499 19.4906 38.7202 19.4741C37.2697 19.1938 35.8356 18.8641 34.4015 18.5508C34.2697 18.5178 34.1213 18.5178 33.9235 18.5014L32.3081 26.2173C35.7202 26.2997 39.0334 27.3549 41.8686 29.2674C42.7423 28.4431 43.9456 28.0968 45.1324 28.3277C47.0775 28.7233 48.3303 30.6029 47.9511 32.5483C47.7698 33.4387 47.2753 34.2135 46.5336 34.7576" fill="#FF4500"/>
<path d="M37.27 31.8229C35.8688 31.757 34.682 32.8451 34.6326 34.2465C34.5996 35.6644 35.704 36.8515 37.1216 36.8845C37.1216 36.8845 37.1216 36.8845 37.1381 36.8845C38.4238 37.0164 39.5612 36.0766 39.6931 34.8071C39.6931 34.6917 39.6931 34.5598 39.6931 34.4444C39.7755 33.076 38.737 31.8889 37.3689 31.8065C37.3359 31.8065 37.3029 31.8065 37.27 31.8065" fill="#FF4500"/>
<path d="M28.1875 34.2465C28.1875 32.8781 27.116 31.757 25.7479 31.7405C24.3797 31.7405 23.2589 32.8121 23.2424 34.1806C23.2259 35.549 24.3138 36.6701 25.682 36.6866C27.0501 36.6866 28.171 35.6149 28.1875 34.2465Z" fill="#FF4500"/>
<path d="M36.6266 40.1818C33.5277 42.2921 29.4727 42.2757 26.3902 40.1818C25.9946 39.9345 25.599 39.8356 25.3188 40.2642C25.0386 40.6929 25.2528 41.0226 25.6485 41.2864C29.2254 43.5452 33.7749 43.5287 37.3519 41.2864C37.7145 41.0391 38.0442 40.7588 37.7145 40.2972C37.4178 39.885 37.0387 39.951 36.6266 40.2148" fill="#FF4500"/>
</svg>
