<svg width="18" height="23" viewBox="0 0 18 23" fill="none" xmlns="http://www.w3.org/2000/svg">
<path fill-rule="evenodd" clip-rule="evenodd" d="M8.78125 0.780273C6.1579 0.780273 4.03125 2.90692 4.03125 5.53027V5.78027H0.78125C0.367036 5.78027 0.03125 6.11606 0.03125 6.53027C0.03125 6.94449 0.367036 7.28027 0.78125 7.28027H16.7812C17.1955 7.28027 17.5312 6.94449 17.5312 6.53027C17.5312 6.11606 17.1955 5.78027 16.7812 5.78027H13.5312V5.53027C13.5312 2.90692 11.4046 0.780273 8.78125 0.780273ZM8.78125 2.28027C10.5762 2.28027 12.0312 3.73535 12.0312 5.53027V5.78027H5.53125V5.53027C5.53125 3.73535 6.98632 2.28027 8.78125 2.28027Z" fill="#03D5C0"/>
<path d="M2.52789 8.45933C2.48871 8.04698 2.12267 7.74446 1.71031 7.78364C1.29795 7.82282 0.995433 8.18886 1.03461 8.60121C1.12908 9.59549 1.29958 10.8206 1.51873 12.3953L1.80028 14.4184C2.06944 16.3532 2.2221 17.4504 2.55234 18.3493C3.16695 20.0221 4.2633 21.3631 5.67331 21.9581C6.43898 22.2812 7.31477 22.2808 8.61858 22.2803H8.94392C10.2477 22.2808 11.1235 22.2812 11.8892 21.9581C13.2992 21.3631 14.3955 20.0221 15.0102 18.3492C15.3404 17.4504 15.4931 16.3531 15.7622 14.4184L16.0438 12.3953C16.2629 10.8206 16.4334 9.5955 16.5279 8.60121C16.5671 8.18886 16.2645 7.82282 15.8522 7.78364C15.4398 7.74446 15.0738 8.04698 15.0346 8.45933C14.9436 9.4173 14.7777 10.6103 14.5556 12.2064L14.2933 14.0914C14.0027 16.179 13.8697 17.1038 13.6022 17.8319C13.0863 19.2361 12.2285 20.1869 11.306 20.5761C10.8558 20.7661 10.3104 20.7803 8.78125 20.7803C7.25208 20.7803 6.70669 20.7661 6.25649 20.5761C5.33404 20.1869 4.47621 19.2361 3.96032 17.8319C3.69281 17.1038 3.55976 16.179 3.26923 14.0914L3.00689 12.2064C2.78477 10.6103 2.61891 9.4173 2.52789 8.45933Z" fill="#03D5C0"/>
<path d="M7.53125 9.53027C7.53125 9.11606 7.19546 8.78027 6.78125 8.78027C6.36704 8.78027 6.03125 9.11606 6.03125 9.53027V17.5303C6.03125 17.9445 6.36704 18.2803 6.78125 18.2803C7.19546 18.2803 7.53125 17.9445 7.53125 17.5303V9.53027Z" fill="#03D5C0"/>
<path d="M11.5312 9.53027C11.5312 9.11606 11.1955 8.78027 10.7812 8.78027C10.367 8.78027 10.0312 9.11606 10.0312 9.53027V17.5303C10.0312 17.9445 10.367 18.2803 10.7812 18.2803C11.1955 18.2803 11.5312 17.9445 11.5312 17.5303V9.53027Z" fill="#03D5C0"/>
</svg>
