<svg width="63" height="63" viewBox="0 0 63 63" fill="none" xmlns="http://www.w3.org/2000/svg">
<path d="M31.5 0C14.0978 0 0 14.0998 0 31.5C0 48.9002 14.0998 63 31.5 63C48.9022 63 63 48.9002 63 31.5C63 14.0998 48.9002 0 31.5 0ZM46.9716 21.5805L41.8015 45.9433C41.4195 47.6707 40.3911 48.0893 38.9564 47.2764L31.0814 41.4723L27.2831 45.1304C26.8644 45.549 26.5088 45.9046 25.6959 45.9046L26.2547 37.8894L40.8484 24.7041C41.4845 24.1453 40.7082 23.8282 39.8688 24.3871L21.8325 35.7413L14.0592 33.3148C12.3704 32.7824 12.3317 31.626 14.4148 30.8131L44.7849 19.1012C46.1953 18.5931 47.4268 19.4446 46.9695 21.5785L46.9716 21.5805Z" fill="#039BE5"/>
</svg>
