<svg width="63" height="63" viewBox="0 0 63 63" fill="none" xmlns="http://www.w3.org/2000/svg">
<g clip-path="url(#clip0_2158_6184)">
<path d="M26.3693 46.4256L31.5004 41.2945H40.9135L46.9059 35.2898V16.476H18.6543V41.2945H26.3693V46.4256ZM37.4805 23.3174H40.9135V33.5918H37.4805V23.3174ZM28.0674 23.3174H31.5004V33.5918H28.0674V23.3174V23.3174Z" fill="#6441A5"/>
<path d="M31.5 0C14.1036 0 0 14.1036 0 31.5C0 48.8964 14.1036 63 31.5 63C48.8964 63 63 48.8964 63 31.5C63 14.1036 48.8964 0 31.5 0ZM50.3385 37.0125L40.0641 47.2869H32.349L27.218 52.418H22.0869V47.2869H12.6738V19.8844L15.2578 13.043H50.3385V37.0125Z" fill="#6441A5"/>
</g>
<defs>
<clipPath id="clip0_2158_6184">
<rect width="63" height="63" fill="white"/>
</clipPath>
</defs>
</svg>
