<svg width="63" height="63" viewBox="0 0 63 63" fill="none" xmlns="http://www.w3.org/2000/svg">
<path d="M33.456 63H29.524C28.7475 62.9009 27.9874 62.8183 27.2109 62.7192C13.6798 60.8195 2.90782 50.4456 0.495675 36.9991C0.280896 35.8428 0.165215 34.6534 0 33.4806V29.5491C0.033043 29.3509 0.0826196 29.1526 0.115663 28.9544C0.313921 27.6329 0.41306 26.3114 0.693925 25.0064C2.32955 16.9947 7.07121 9.95759 13.8946 5.44791C20.5197 0.855637 28.6813 -0.928412 36.6117 0.459182C42.4437 1.35121 47.8793 3.94468 52.2741 7.89272C58.9488 13.6578 62.8478 21.9834 62.98 30.8045C63.1948 36.6853 61.6748 42.4834 58.6018 47.5052C53.9592 55.4839 46.0289 60.9847 36.9256 62.521C35.7856 62.7357 34.6291 62.8513 33.4726 63M17.7772 34.5874C18.7684 37.4782 21.3789 39.4935 24.4188 39.7413C23.3945 40.4351 22.3206 41.0298 21.2137 41.5584C18.9172 42.533 16.4059 42.9129 13.9277 42.6321C14.159 42.7973 14.2581 42.8799 14.3572 42.9295C20.3049 46.6297 27.7562 46.9601 34.0178 43.805C41.7168 40.0221 45.3185 33.4476 45.5498 24.9568C45.5168 24.5604 45.6985 24.1639 46.0289 23.9326C46.6898 23.3875 47.3176 22.7928 47.9124 22.1816C48.3254 21.7521 48.6559 21.2566 49.0854 20.728L45.302 21.7356L45.2194 21.5704C46.5576 20.7114 47.5654 19.423 48.0941 17.9197C46.7559 18.3988 45.4342 18.8613 44.1124 19.3404C43.782 19.456 43.4185 19.3734 43.1872 19.1091C40.2464 16.4 35.67 16.5817 32.977 19.5221C31.9361 20.6454 31.2752 22.0825 31.11 23.6023C31.0605 24.4282 31.0439 25.2376 31.11 26.0636C25.3275 25.7332 19.958 22.9911 16.2902 18.5144C15.3815 20.0837 15.1007 21.9504 15.4972 23.7344C15.8937 25.4854 16.9181 27.0382 18.372 28.0954L18.2728 28.2606L15.2163 27.4016C15.2659 30.7385 17.5459 33.6293 20.7841 34.4387L20.7511 34.5874H17.7772V34.5874Z" fill="#1D9BF0"/>
</svg>
