<svg width="145" height="25" viewBox="0 0 145 25" fill="none" xmlns="http://www.w3.org/2000/svg">
<g clip-path="url(#clip0_624_7642)">
<path d="M22.0256 6.61916L16.2891 21.5118C15.5256 23.5046 14.1843 24.4903 12.2653 24.4903C10.3462 24.4903 9.00494 23.5046 8.24145 21.5118L0.235107 0.662109H5.39384L12.2859 18.5333L18.0224 3.64063C18.7859 1.64781 20.1272 0.662109 22.0256 0.662109C23.924 0.662109 25.2859 1.64781 26.0494 3.64063L31.7859 18.5333L38.6573 0.662109H43.816L35.7891 21.5118C35.0256 23.5046 33.6843 24.4903 31.7653 24.4903C29.8462 24.4903 28.5049 23.5046 27.7414 21.5118L22.0256 6.61916Z" fill="white"/>
<path d="M47.9225 14.9547V19.7332H74.3146C75.0781 19.7332 75.4701 20.119 75.4701 20.9332L75.4495 23.3118C75.4495 24.1046 75.0781 24.5117 74.3146 24.5117H49.0574C45.2193 24.5117 43.3003 22.5189 43.3003 18.5547V6.61916C43.3003 2.65494 45.2193 0.662109 49.0574 0.662109H74.3352C75.0781 0.662109 75.4289 1.04782 75.4289 1.81923L75.4082 4.2192C75.4082 5.01204 75.0368 5.41918 74.2733 5.41918H47.9019V10.1762H74.3146C75.0781 10.1762 75.4701 10.562 75.4701 11.3762V13.7548C75.4701 14.5476 75.0781 14.9547 74.3146 14.9547H47.9225Z" fill="white"/>
<path d="M78.9159 0.662109H104.132C107.949 0.662109 109.868 2.65494 109.868 6.61916V7.81914C109.868 10.1977 109.105 11.7834 107.578 12.5762C109.105 13.3691 109.868 14.9547 109.868 17.3333L109.848 18.5333C109.848 22.4975 107.929 24.4903 104.111 24.4903H78.8953C78.1318 24.4689 77.7397 24.0832 77.7397 23.2903V1.86209C77.7397 1.04782 78.1318 0.662109 78.9159 0.662109ZM82.362 5.39775L82.3413 10.1977H105.267L105.287 5.44061L82.362 5.39775ZM82.362 14.9547L82.3413 19.7332H105.267L105.287 14.9762H82.362V14.9547Z" fill="white"/>
<path d="M117.895 14.9547C117.132 14.9547 116.74 14.569 116.74 13.7548V11.3762C116.74 10.5834 117.111 10.1762 117.895 10.1762H139.665L139.686 5.41918H113.314C112.551 5.41918 112.159 5.01204 112.159 4.2192V1.86209C112.159 1.06925 112.551 0.662109 113.335 0.662109H138.551C142.368 0.662109 144.287 2.65494 144.287 6.61916V7.81914C144.287 10.1977 143.524 11.7834 141.997 12.5762C143.524 13.3691 144.287 14.9547 144.287 17.3333L144.267 18.5333C144.267 22.4975 142.348 24.4903 138.53 24.4903H113.314C112.551 24.4689 112.159 24.0832 112.159 23.2903V20.9118C112.159 20.119 112.53 19.7118 113.314 19.7118H139.686L139.707 14.9547H117.895Z" fill="#3C5FFF"/>
</g>
<defs>
<clipPath id="clip0_624_7642">
<rect width="144.052" height="23.8282" fill="white" transform="translate(0.235107 0.662109)"/>
</clipPath>
</defs>
</svg>
