<svg width="63" height="63" viewBox="0 0 63 63" fill="none" xmlns="http://www.w3.org/2000/svg">
<path d="M62.5371 26.0627C60.9997 17.006 55.561 9.10624 47.6426 4.4457C43.5098 1.9171 38.815 0.413169 33.9549 0.0991605C33.7895 0.0826338 33.6408 0.0495803 33.4755 0H29.5411C28.4169 0.148741 27.2763 0.280955 26.1357 0.479276C19.0273 1.65268 12.5636 5.27204 7.85227 10.7259C3.48806 15.6343 0.793486 21.7988 0.148774 28.3269C0.0991805 28.7235 0.0495933 29.1367 0 29.5333V33.4667C0.165311 34.6401 0.281008 35.8135 0.495913 36.9869C1.76881 44.457 5.7528 51.1999 11.6544 55.9431C16.1013 59.612 21.507 61.9588 27.2267 62.719C27.9871 62.8347 28.7641 62.9174 29.5411 63H33.4755C34.6492 62.8347 35.8229 62.719 36.9966 62.5042C50.8496 60.0252 61.3965 48.6713 62.8512 34.6731C62.9008 34.26 62.9504 33.8633 63 33.4667V29.5333C62.8347 28.3764 62.7355 27.2196 62.5206 26.0792M50.6678 39.4824C50.1884 42.9861 48.5353 44.5561 44.9315 44.771C40.5012 45.0354 36.0543 45.2007 31.5909 45.4155C27.1606 45.2007 22.7468 45.0024 18.3165 44.7875C17.6883 44.7545 17.0435 44.6553 16.4319 44.5231C14.4482 44.1926 12.8777 42.6225 12.5306 40.6393C11.8693 37.1687 11.6379 33.632 11.8197 30.1118C11.9024 27.5666 12.1338 25.038 12.5306 22.526C12.7951 20.1792 14.7457 18.4108 17.0931 18.3612C21.3582 18.0637 25.6397 17.7993 29.9213 17.7663C34.4343 17.7332 38.9307 17.9646 43.4437 18.1133C44.419 18.1629 45.4109 18.2786 46.3697 18.4769C48.4196 18.7248 50.0562 20.3114 50.3702 22.3607C50.7339 24.5753 50.9819 26.8229 51.0811 29.0706C51.2629 32.5577 51.1141 36.0449 50.6347 39.4989" fill="#FF0B0B"/>
<path d="M37.8558 31.4834L27.623 37.367V25.5834L37.8558 31.4669" fill="#FF0B0B"/>
</svg>
